<svg xmlns="http://www.w3.org/2000/svg" viewBox="0 0 162.48 31.32"><defs><style>.cls-1{fill:#231815;stroke:#231815;stroke-miterlimit:10;stroke-width:0.25px;}</style></defs><g id="레이어_2" data-name="레이어 2"><g id="레이어_1-2" data-name="레이어 1"><path class="cls-1" d="M.51,30.31V1h3.9V26.86H19v3.45Z"/><path class="cls-1" d="M19.34,30.69H.12V.64H4.8V26.48H19.34ZM.89,29.93H18.58V27.24H4V1.41H.89Z"/><path class="cls-1" d="M23.69,30.31V1H45V4.48H27.6v9H43.94v3.44H27.6v10H45.73v3.45Z"/><path class="cls-1" d="M46.11,30.69H23.31V.64H45.43V4.86H28v8.21H44.32v4.2H28v9.21H46.11Zm-22-.76H45.35V27.24H27.22V16.51H43.55V13.83H27.22V4.1H44.66V1.41H24.07Z"/><path class="cls-1" d="M72.2,20l3.9,1a12.94,12.94,0,0,1-4.42,7.28,12.2,12.2,0,0,1-7.8,2.51,14.11,14.11,0,0,1-7.77-1.93,12,12,0,0,1-4.55-5.58A19.79,19.79,0,0,1,50,15.45a17.19,17.19,0,0,1,1.76-8,12.08,12.08,0,0,1,5-5.18A14.83,14.83,0,0,1,63.94.53a12.17,12.17,0,0,1,7.45,2.23,11.6,11.6,0,0,1,4.21,6.3l-3.85.9a8.94,8.94,0,0,0-3-4.66,8,8,0,0,0-4.91-1.46,9.59,9.59,0,0,0-5.69,1.62A8.55,8.55,0,0,0,55,9.81,17.51,17.51,0,0,0,54,15.43,17.57,17.57,0,0,0,55.13,22a8.14,8.14,0,0,0,3.41,4.17,9.63,9.63,0,0,0,5,1.38,8.48,8.48,0,0,0,5.56-1.88A9.64,9.64,0,0,0,72.2,20Z"/><path class="cls-1" d="M63.88,31.19a14.53,14.53,0,0,1-8-2,12.48,12.48,0,0,1-4.7-5.75,20.15,20.15,0,0,1-1.59-8,17.71,17.71,0,0,1,1.8-8.16A12.46,12.46,0,0,1,56.6,2,15.2,15.2,0,0,1,63.94.15a12.57,12.57,0,0,1,7.68,2.31A12.08,12.08,0,0,1,76,9l.11.39L71.5,10.41l-.11-.34a8.69,8.69,0,0,0-2.85-4.46,7.6,7.6,0,0,0-4.68-1.39,9.25,9.25,0,0,0-5.47,1.55,8.2,8.2,0,0,0-3.07,4.16,16.83,16.83,0,0,0-.91,5.5,17.43,17.43,0,0,0,1.07,6.38,7.81,7.81,0,0,0,3.25,4,9.31,9.31,0,0,0,4.83,1.32,8.1,8.1,0,0,0,5.31-1.79,9.24,9.24,0,0,0,3-5.36l.08-.38,4.66,1.17-.1.37a13.41,13.41,0,0,1-4.55,7.48A12.66,12.66,0,0,1,63.88,31.19ZM63.94.91a14.46,14.46,0,0,0-7,1.72,11.7,11.7,0,0,0-4.86,5,16.9,16.9,0,0,0-1.72,7.81,19.6,19.6,0,0,0,1.53,7.7,11.7,11.7,0,0,0,4.41,5.41,13.79,13.79,0,0,0,7.56,1.87A11.94,11.94,0,0,0,71.45,28a12.52,12.52,0,0,0,4.19-6.7l-3.16-.79a9.78,9.78,0,0,1-3.12,5.4,8.82,8.82,0,0,1-5.8,2,10,10,0,0,1-5.22-1.44,8.49,8.49,0,0,1-3.57-4.35,18.08,18.08,0,0,1-1.12-6.66,17.81,17.81,0,0,1,.94-5.75A9,9,0,0,1,58,5.15a10,10,0,0,1,5.91-1.69A8.37,8.37,0,0,1,69,5a9.25,9.25,0,0,1,3,4.51l3.11-.73a11.2,11.2,0,0,0-4-5.71A11.85,11.85,0,0,0,63.94.91Z"/><path class="cls-1" d="M89.24,30.31V17.91L77.86,1h4.75l5.82,8.83q1.62,2.48,3,5c.89-1.53,2-3.26,3.23-5.17L100.38,1h4.55L93.15,17.91v12.4Z"/><path class="cls-1" d="M93.53,30.69H88.86V18L77.14.64h5.68l5.93,9q1.43,2.19,2.69,4.4c.82-1.39,1.79-2.94,2.9-4.62L100.17.64h5.49L93.53,18Zm-3.91-.76h3.15V17.79L104.2,1.41h-3.62L95,9.85c-1.25,1.9-2.33,3.63-3.21,5.15l-.33.58L91.1,15c-.92-1.64-1.92-3.3-3-4.94l-5.7-8.65H78.57L89.62,17.79Z"/><path class="cls-1" d="M118,30.31V4.48h-9.73V1h23.41V4.48h-9.77V30.31Z"/><path class="cls-1" d="M122.27,30.69H117.6V4.86h-9.73V.64H132V4.86h-9.77Zm-3.91-.76h3.15V4.1h9.77V1.41H108.64V4.1h9.72Z"/><path class="cls-1" d="M133.74,16.05q0-7.29,3.94-11.42A13.49,13.49,0,0,1,147.88.51a14.25,14.25,0,0,1,7.37,1.93,12.69,12.69,0,0,1,5,5.41A17.4,17.4,0,0,1,162,15.71a17.11,17.11,0,0,1-1.82,8A12.33,12.33,0,0,1,155,29a14.74,14.74,0,0,1-7.17,1.81,14,14,0,0,1-7.46-2,12.83,12.83,0,0,1-5-5.45A16.37,16.37,0,0,1,133.74,16.05Zm4,.06q0,5.3,2.87,8.34a10.07,10.07,0,0,0,14.47,0Q158,21.35,158,15.69a14.91,14.91,0,0,0-1.22-6.24,9.28,9.28,0,0,0-3.57-4.14,9.7,9.7,0,0,0-5.26-1.47,10,10,0,0,0-7.15,2.83Q137.76,9.49,137.76,16.11Z"/><path class="cls-1" d="M147.86,31.19a14.54,14.54,0,0,1-7.66-2.05,13.34,13.34,0,0,1-5.12-5.61,17,17,0,0,1-1.73-7.48c0-4.94,1.37-8.87,4.06-11.68A13.88,13.88,0,0,1,147.88.12a14.58,14.58,0,0,1,7.56,2,13.14,13.14,0,0,1,5.16,5.56,17.85,17.85,0,0,1,1.76,8,17.63,17.63,0,0,1-1.86,8.15,12.79,12.79,0,0,1-5.29,5.48A15.22,15.22,0,0,1,147.86,31.19Zm0-30.3a13.16,13.16,0,0,0-9.92,4c-2.55,2.66-3.84,6.41-3.84,11.15a16,16,0,0,0,1.65,7.14,12.62,12.62,0,0,0,4.83,5.3,13.74,13.74,0,0,0,7.26,1.94,14.39,14.39,0,0,0,7-1.76,11.94,11.94,0,0,0,5-5.16,16.81,16.81,0,0,0,1.78-7.8A17.05,17.05,0,0,0,159.91,8a12.33,12.33,0,0,0-4.86-5.25A13.9,13.9,0,0,0,147.88.89Zm0,27a9.89,9.89,0,0,1-7.48-3.17c-2-2.09-3-5-3-8.6,0-4.5,1.05-7.77,3.11-9.72a10.48,10.48,0,0,1,7.41-2.93A10.09,10.09,0,0,1,153.37,5a9.7,9.7,0,0,1,3.71,4.3,15.35,15.35,0,0,1,1.25,6.4c0,3.85-1,6.87-3,9A9.9,9.9,0,0,1,147.84,27.88Zm.06-23.66A9.69,9.69,0,0,0,141,7c-1.91,1.8-2.87,4.88-2.87,9.16a11.39,11.39,0,0,0,2.76,8.08,9.71,9.71,0,0,0,13.91,0c1.82-2,2.75-4.82,2.75-8.47a14.46,14.46,0,0,0-1.19-6.08,9,9,0,0,0-3.42-4A9.43,9.43,0,0,0,147.9,4.22Z"/></g></g></svg>